<svg width="238" height="257" viewBox="0 0 238 257" fill="none" xmlns="http://www.w3.org/2000/svg">
<path fill-rule="evenodd" clip-rule="evenodd" d="M221.8 7.19805C221.9 5.43848 222 4.43302 222.1 3.42755C224 4.18165 224.9 5.94122 224.7 10.7172C224.6 14.2363 224.1 17.7554 223.6 21.0232C223.23 23.3495 222.746 25.4845 222.264 27.6052C221.966 28.9217 221.668 30.2327 221.4 31.5806C220.2 36.8593 218.6 41.3839 216.3 43.8975C212.5 48.1708 208.9 43.3948 208.1 33.3401C207.3 23.7882 207.8 14.9904 210.6 7.70078C214.2 -2.35388 217.8 -2.60524 221.8 7.19805ZM26.4 34.0942C27.4 20.5205 24.1 10.2144 18.2 10.2144C17.9 10.2144 17.4 10.2144 16.8 10.4658C6.1 15.2418 1.4 37.1106 0 58.4768V58.9795C0 64.2582 1.1 66.7719 3.3 67.526C3.8 67.526 4.4 68.0287 4.8 68.7828C7.3 74.0615 10.1 74.0615 12.9 71.2965C16.9 67.526 20.3 60.9904 22.9 52.444C24.5 46.9139 25.9 40.8811 26.4 34.0942ZM131.512 12.0778C131.2 12.147 130.847 12.2254 130.4 12.2254C128.2 11.7227 125.9 13.4822 123.8 17.5041C120.1 24.0396 117 32.3347 114.9 42.3894C114.3 45.4058 113.8 48.6735 113.6 51.9413C113.1 59.4823 115.1 63.5041 118.1 61.4932C118.4 61.2878 118.697 61.0684 118.994 60.8496L118.995 60.8494C120.878 59.4619 122.727 58.0994 124.8 60.4877C125.6 61.2418 126.7 60.7391 127.6 59.985C128.7 58.9795 129.8 57.7227 130.8 55.9632C135.5 48.1708 136.9 36.3566 136.9 23.0342C136.9 16.4986 134.9 12.2254 132.2 11.974C131.979 11.974 131.758 12.023 131.512 12.0778ZM66.1 71.0451C65.9823 71.1437 65.8608 71.2423 65.7369 71.3428C65.2292 71.7547 64.6823 72.1985 64.2 72.8047C62.4 75.067 61 73.3074 60.8 68.2801C60.7 66.5205 60.8 64.5096 61 63.0014C62.1 52.6954 63.6 42.6407 66 33.8429C66.5 31.832 67.1 29.821 67.8 28.3128C68.4 26.8046 69.2 25.2964 69.9 24.5423C70.8 23.7882 71.8 23.0341 72.7 23.2855C73.0921 23.4087 73.4843 23.5252 73.8761 23.6416L73.8764 23.6417C75.8819 24.2375 77.8759 24.8299 79.8 26.3019C81 27.056 81.7 30.5751 81.9 33.8429C82 36.3566 82.1 39.1216 81.9 41.6353C81.2 52.6954 75.8 67.526 71.3 68.0287C70.9 68.0287 70.5 68.4756 70.1 68.9225C69.9 69.1459 69.7 69.3693 69.5 69.5369C68.4 70.5424 67.3 71.5479 66.2 72.3019C66.2 72.1978 66.1828 72.0506 66.1627 71.878V71.8779C66.1343 71.634 66.1 71.3396 66.1 71.0451ZM159.9 125.089C161.6 112.269 159.2 100.204 154.1 97.4386C153 89.6462 150.8 87.6353 148.3 92.4112C147.2 94.4222 146.3 97.4386 145.5 100.455C142.8 110.761 143.4 122.072 144.2 133.133C144.4 136.149 145.3 138.16 146.4 139.165C146.7 139.417 147 139.605 147.3 139.794C147.6 139.982 147.9 140.171 148.2 140.422C153.5 144.193 158.1 138.16 159.9 125.089ZM22.7 146.706C22.7 132.63 26.2999 118.805 31.1 113.526C31.8 112.772 32.4 111.515 33 110.007C35.9 103.723 39.3999 106.236 40.2999 115.788C40.5 118.553 40.5 121.318 40.2999 124.083C39.3999 136.149 37 146.706 33.5999 155.504C32.8999 157.264 32 159.023 31.1 160.28C27.2 165.559 23.2 160.28 22.7 148.969V146.706ZM171.5 14.739C168 17.0013 163.9 29.821 164 40.3784C164 49.679 166.3 56.2145 169.5 55.7118C170.7 55.5442 171.9 55.1532 173.1 54.7622C173.7 54.5667 174.3 54.3711 174.9 54.2036C175.365 54.2036 175.77 53.7506 176.161 53.3127C176.275 53.1856 176.387 53.0598 176.5 52.9467C180 48.9249 183.4 34.8483 183.2 25.2964C183.1 17.5041 180.9 12.2254 177.8 12.4767C175.7 12.4767 173.6 13.4822 171.5 14.739ZM98.8439 94.0366L98.844 94.0377V94.0378V94.0379L98.844 94.0381C99.0187 96.2553 99.2 98.5568 99.2 100.706C99.2 103.471 99.4 105.985 100 108.75C100.5 111.012 100.7 113.777 100.8 116.291C101 128.357 96 141.428 91.1 141.428C87.8 141.428 85 135.395 84.3 127.1C83.4 117.045 85.6 103.723 89.2 98.1927C90.6 95.9304 92.1 95.1763 93.6 97.9414C94.8 100.204 95.2 99.7009 96.1 96.6845L97.9 91.4058C98.2 91.9086 98.5 92.1599 98.7 92.1599C98.7445 92.7749 98.7939 93.4023 98.8439 94.0366ZM236.178 174.188C234.555 177.036 233.04 179.696 230.8 179.133C229.9 172.849 228.4 169.329 225.9 169.832C225.5 169.832 225 168.827 224.7 168.073C223.4 164.805 222 165.056 220.5 166.564C216.1 171.34 213.6 187.176 215.6 198.236C217.3 207.788 221.6 211.056 225 205.023C225.9 203.515 226.7 201.504 227.4 199.242C228.4 196.226 229.4 194.215 231 192.958C234.4 190.444 236.8 184.411 237.9 175.865C237.963 175.07 237.946 174.274 237.926 173.288V173.288V173.288V173.288V173.287V173.287V173.287L237.925 173.285C237.913 172.714 237.9 172.078 237.9 171.34C237.292 172.232 236.729 173.221 236.178 174.188ZM131.35 190.193C131.775 189.941 132.2 189.69 132.6 189.439V189.438C132.6 188.936 132.6 188.433 132.7 187.679C129.9 183.154 126.8 182.4 123.6 184.663L123.511 184.719L123.438 184.765L123.436 184.766C122.308 185.481 121.345 186.09 120.2 184.411C118.7 182.4 117.1 183.155 115.6 185.417C111.9 190.695 109.8 205.275 111.4 215.329C111.9 218.849 112.8 221.614 114.2 222.116C116.4 223.122 118.7 223.122 120.6 219.351C123 214.575 124.8 208.542 125 200.75C125.2 196.728 125.9 194.466 127.2 193.209C128.1 192.455 129.1 191.701 130.1 190.947L130.1 190.947C130.5 190.695 130.925 190.444 131.35 190.193ZM66.7453 225.611L66.7451 225.611C66.2131 225.048 65.7065 224.513 65.2 223.876C64.6005 226.262 64.0011 228.585 63.4017 230.907L63.4004 230.912L63.4 230.914L63.3996 230.916C62.7997 233.24 62.1998 235.565 61.6 237.952C60.5 242.226 59 245.242 56.8 244.237C54.6 243.231 53 239.712 52.6 233.931C52.4 230.663 52.4 227.144 52.6 223.876C53.1 216.586 54.4 210.051 56.5 204.772C59.5 197.231 62.6 197.734 65.1 206.029C65.2999 206.783 65.6 207.537 65.9 208.291C68.7 214.073 68.9999 217.34 67.7 226.641C67.3706 226.273 67.0546 225.939 66.7471 225.613L66.7459 225.612L66.7453 225.611ZM16.6837 225.092C16.8165 224.483 16.9582 223.834 17.0999 223.122C16.9625 222.845 16.8175 222.569 16.667 222.282C16.2701 221.525 15.835 220.696 15.3999 219.603C13.1999 213.57 11.3999 212.564 8.49994 216.335C4.99994 221.111 2.59994 227.898 1.89994 237.952C1.59994 242.477 1.59994 247.002 2.79994 251.023C5.39994 259.57 11.8999 259.067 13.6999 248.761C14.1999 245.745 14.6999 242.477 15.0999 239.209C15.3096 237.365 15.4643 235.451 15.6217 233.504C15.7646 231.737 15.9096 229.943 16.0999 228.149C16.2291 227.175 16.4416 226.201 16.6837 225.092ZM202.5 72.0506C204.9 73.8102 206.2 80.0943 205.5 85.373C205 89.3949 204.6 93.4167 204.4 97.4386C203.9 106.488 202.1 113.275 199.1 117.799C196.3 122.072 193.3 118.805 192.1 111.012C191.4 106.236 191.5 101.46 192.1 96.9358C193.5 86.8812 196.3 79.8429 200.3 76.8265C201.5 76.0724 202.3 75.067 202.5 72.0506ZM183.1 204.521C184.4 196.477 184 189.187 181.2 182.4C181.9 179.384 182 176.368 181.1 174.105C180 171.34 178.7 171.34 177.3 172.346C176.9 172.597 176.5 173.1 176.2 173.603C172.6 178.63 170.3 190.695 170.9 200.75C171.3 208.291 173.3 213.57 175.8 214.324C178.9 215.329 182 211.056 183.1 204.521Z" fill="black"/>
</svg>
