<svg width="170" height="23" viewBox="0 0 170 23" fill="none" xmlns="http://www.w3.org/2000/svg">
<path d="M51.0657 4.23685C48.3048 2.94587 45.567 3.25101 43.2469 5.32831C42.1797 6.27893 41.1704 7.32345 40.1728 8.35623C38.4443 6.57234 36.7274 4.77671 34.9525 3.0515C30.6951 -1.04442 23.8392 -1.00921 19.6166 3.11018C17.8533 4.83539 16.1364 6.61928 14.4079 8.39144C13.5263 7.47602 12.6446 6.57234 11.7282 5.7156C9.55887 3.70872 6.98354 3.32143 4.33861 4.4833C1.54288 5.7156 0.116006 8.02762 0 11.4076C0.174009 14.0835 1.40367 16.3368 4.037 17.6278C6.75153 18.9657 9.36166 18.6019 11.6122 16.6185C12.5866 15.7617 13.4915 14.8228 14.3847 13.8839C16.0552 15.5974 17.7141 17.3344 19.4193 19.0244C21.6119 21.1956 24.2684 22.2988 27.3425 22.2518C30.3239 22.2753 32.9224 21.2425 35.0453 19.1535C36.7854 17.4517 38.4675 15.6913 40.1612 13.9426C41.0892 14.9167 42.0173 15.8908 43.0149 16.7828C45.3698 18.8718 48.0612 19.3882 50.9729 18.062C53.8846 16.7476 55.1607 14.3064 55.4507 11.2903C55.2535 8.01588 53.8962 5.56303 51.0657 4.23685ZM11.5774 11.525C10.7537 12.3348 9.99969 13.2267 9.11805 13.9896C7.94639 15.0224 6.58912 15.1984 5.17385 14.5177C3.80499 13.8487 3.16696 12.6634 3.07415 11.2785C3.13215 9.50637 3.88619 8.29755 5.33626 7.6638C6.71673 7.06525 8.0624 7.26477 9.18765 8.30928C10.0113 9.0604 10.7769 9.91713 11.5658 10.7035C11.8674 10.9851 11.9138 11.2081 11.5774 11.525ZM37.3422 11.525C35.7065 13.168 34.1289 14.8698 32.4816 16.4894C31.0547 17.886 29.3146 18.5784 27.3309 18.5549C25.2776 18.5901 23.5028 17.8508 22.0411 16.4072C20.4402 14.8111 18.8973 13.168 17.308 11.5719C16.9716 11.2433 16.9832 11.0438 17.2964 10.7269C18.9321 9.09561 20.5214 7.39387 22.1803 5.78602C24.9992 3.02802 29.5698 3.00455 32.412 5.75081C34.0941 7.37039 35.6833 9.09561 37.3306 10.7621C37.6206 11.0555 37.6554 11.2198 37.3422 11.525ZM49.4416 14.5177C48.0147 15.1984 46.6575 15.0224 45.4974 13.9896C44.6158 13.2267 43.8617 12.3348 43.0265 11.525C42.7017 11.2081 42.7481 10.9851 43.0497 10.7035C43.8385 9.91713 44.6042 9.0604 45.4278 8.30928C46.5531 7.26477 47.8987 7.06525 49.2792 7.6638C50.7293 8.29755 51.4833 9.50637 51.5413 11.2785C51.4485 12.6634 50.8105 13.8487 49.4416 14.5177Z" fill="#1956c6"/>
<path d="M76.6057 18.0303H72.4532L69.2561 12.1054H68.1353V18.0303H64.5708V2.55469H70.0278C71.7182 2.55469 73.0595 2.92849 74.0333 3.65742C75.1542 4.49848 75.7054 5.67597 75.7054 7.18989C75.7054 8.10571 75.5216 8.89071 75.1725 9.56356C74.8051 10.2364 74.4376 10.7037 74.0333 10.984C73.6291 11.2644 73.2065 11.4887 72.7472 11.6382L76.6057 18.0303ZM71.3508 5.75073C71.0017 5.48907 70.3953 5.35824 69.5317 5.35824H68.117V9.32058H69.5317C70.3769 9.32058 71.0017 9.17106 71.3691 8.89071C71.8836 8.5169 72.1408 7.99357 72.1408 7.32072C72.1225 6.64787 71.8652 6.14323 71.3508 5.75073Z" fill="black"/>
<path d="M87.979 13.3555H80.2436C80.3171 14.1218 80.6111 14.7012 81.1072 15.075C81.6216 15.4675 82.2464 15.6544 83.0181 15.6544C84.1756 15.6544 85.2597 15.2993 86.2886 14.6077L87.685 16.4768L87.4829 16.6637C87.3359 16.7758 87.2073 16.888 87.0787 16.9627C86.9685 17.0375 86.7847 17.1496 86.5642 17.2992C86.3437 17.4487 86.1049 17.5608 85.8293 17.6543C85.572 17.7477 85.2781 17.8599 84.9473 17.9533C84.6166 18.0468 84.2491 18.1402 83.8265 18.1963C83.4039 18.2524 82.9629 18.271 82.5036 18.271C80.7765 18.271 79.38 17.7664 78.3143 16.7384C77.2487 15.7105 76.7158 14.29 76.7158 12.5144C76.7158 10.7575 77.267 9.35577 78.3878 8.3278C79.5087 7.29983 80.9051 6.75781 82.5771 6.75781C84.194 6.75781 85.4985 7.26245 86.5091 8.25304C87.5197 9.24362 88.0158 10.5519 88.0158 12.1593L87.979 13.3555ZM84.7452 11.3183C84.7268 10.7575 84.5247 10.2342 84.1389 9.78564C83.753 9.33708 83.2202 9.0941 82.522 9.0941C81.8421 9.0941 81.3093 9.31839 80.9051 9.76695C80.5008 10.2155 80.2987 10.7389 80.262 11.3183H84.7452Z" fill="black"/>
<path d="M98.8934 16.9449L98.8199 16.9823C98.7831 17.0196 98.728 17.0757 98.6913 17.1131C98.6545 17.1505 98.581 17.2065 98.4892 17.2626C98.3973 17.3374 98.3054 17.3934 98.2136 17.4495L97.8645 17.6364C97.7175 17.7112 97.5705 17.7673 97.4235 17.8233C97.2765 17.8794 97.0927 17.9355 96.909 17.9915C96.7069 18.0476 96.5048 18.1037 96.2843 18.1411C96.0638 18.1784 95.8249 18.2158 95.5677 18.2345C95.3105 18.2532 95.0349 18.2719 94.7593 18.2719C93.1791 18.2719 91.8378 17.7486 90.717 16.7206C89.5962 15.6926 89.0266 14.2909 89.0266 12.534C89.0266 10.7771 89.5962 9.3753 90.7354 8.32864C91.8746 7.28198 93.2342 6.77734 94.796 6.77734C95.6228 6.77734 96.3762 6.8708 97.0376 7.07639C97.7175 7.26329 98.1768 7.46889 98.4524 7.65579L98.8199 7.95483L98.0482 10.6649C97.2397 9.99208 96.3027 9.65565 95.2554 9.65565C94.4837 9.65565 93.8589 9.91732 93.3445 10.422C92.83 10.9266 92.5728 11.6181 92.5728 12.4592C92.5728 13.319 92.83 14.0105 93.3261 14.5338C93.8222 15.0572 94.4837 15.3001 95.3105 15.3001C95.7882 15.3001 96.2659 15.2067 96.7253 15.0385C97.1846 14.8516 97.5337 14.6833 97.7542 14.4964L98.0666 14.2348L98.8934 16.9449Z" fill="black"/>
<path d="M107.437 10.2716H107.29C106.959 10.0847 106.536 10.0099 106.003 10.0099C105.305 10.0099 104.772 10.2716 104.368 10.8136C104.001 11.2996 103.817 12.0846 103.817 13.1312V18.0468H100.289V6.96341H103.817L103.798 8.53339H103.835C104.442 7.3559 105.342 6.75781 106.518 6.75781C106.738 6.75781 106.94 6.7765 107.124 6.79519C107.308 6.83257 107.437 6.85126 107.51 6.88864L107.62 6.96341L107.437 10.2716Z" fill="black"/>
<path d="M118.204 16.7011C117.065 17.7477 115.632 18.2524 113.886 18.2524C112.123 18.2524 110.671 17.729 109.55 16.7011C108.411 15.6544 107.86 14.2713 107.86 12.5144C107.86 10.7575 108.429 9.37446 109.569 8.3278C110.708 7.28114 112.159 6.75781 113.905 6.75781C115.65 6.75781 117.084 7.28114 118.223 8.3278C119.362 9.37446 119.913 10.7762 119.913 12.5144C119.913 14.2526 119.344 15.6731 118.204 16.7011ZM115.687 10.4024C115.246 9.86041 114.64 9.59874 113.886 9.59874C113.115 9.59874 112.527 9.86041 112.086 10.4024C111.645 10.9444 111.424 11.636 111.424 12.4584C111.424 13.2994 111.645 13.991 112.086 14.5143C112.527 15.0563 113.133 15.318 113.886 15.318C114.64 15.318 115.228 15.0563 115.687 14.5143C116.128 13.9723 116.367 13.2807 116.367 12.4584C116.349 11.6173 116.128 10.9444 115.687 10.4024Z" fill="black"/>
<path d="M138.232 6.96484L134.667 18.0108H131.341L129.228 11.2449L127.097 18.0108H123.771L120.207 6.96484H123.771L125.682 14.0298L127.777 6.96484H130.662L132.756 14.0298L134.667 6.96484H138.232Z" fill="black"/>
<path d="M150.579 18.0303H147.235L147.253 16.5724L147.18 16.5911C146.371 17.7125 145.177 18.2732 143.615 18.2732C142.072 18.2732 140.841 17.7312 139.885 16.6285C138.948 15.5445 138.471 14.1614 138.471 12.4979C138.471 10.8345 138.948 9.4701 139.885 8.38607C140.823 7.30203 142.072 6.76001 143.615 6.76001C144.497 6.76001 145.232 6.92822 145.802 7.24596C146.39 7.58238 146.794 7.91881 147.051 8.29261V2.55469H150.579V18.0303ZM146.463 10.3859C146.004 9.8626 145.379 9.58225 144.626 9.58225C143.873 9.58225 143.248 9.84391 142.77 10.3859C142.292 10.9093 142.072 11.6008 142.072 12.4606C142.072 13.3203 142.311 14.0119 142.77 14.5352C143.248 15.0585 143.854 15.3389 144.626 15.3389C145.398 15.3389 146.004 15.0772 146.463 14.5352C146.923 14.0119 147.162 13.3203 147.162 12.4606C147.162 11.6195 146.923 10.9279 146.463 10.3859Z" fill="black"/>
<path d="M156.624 18.0303H153.096V2.55469H156.624V18.0303Z" fill="black"/>
<path d="M170 6.96484L165.15 19.0762C164.709 20.1602 164.231 20.9452 163.698 21.4685C163.184 21.9919 162.485 22.2535 161.622 22.2535C161.071 22.2535 160.556 22.2161 160.042 22.1227C159.527 22.0292 159.178 21.9358 158.958 21.861L158.609 21.7302L159.307 19.0762C159.821 19.2631 160.262 19.3752 160.611 19.3752C160.795 19.3752 160.924 19.3752 161.016 19.3565C161.107 19.3378 161.218 19.2818 161.346 19.1696C161.475 19.0575 161.585 18.8893 161.677 18.665L162.081 17.6931L157.782 6.98353H161.457L163.919 14.0859L166.362 6.98353H170V6.96484Z" fill="black"/>
</svg>
